<svg xmlns="http://www.w3.org/2000/svg" viewBox="0 0 742.99 125.59">
  <defs>
    <style>
      .cls-1 {
        fill: #ff7b7b;
      }

      .cls-2 {
        fill: #fff;
      }
    </style>
  </defs>
  <g id="Livello_2" data-name="Livello 2">
    <g id="Livello_1-2" data-name="Livello 1">
      <g>
        <rect class="cls-1" x="172.2" width="68.66" height="8.92"/>
        <g>
          <path class="cls-2" d="M70.52,75.76a76.53,76.53,0,0,0-13.16-5.1q-7.2-2.09-14.49-3.75t-13.24-3.6A24.11,24.11,0,0,1,20,57.7a12.3,12.3,0,0,1-3.73-9.15c0-4.8,2.37-8.77,7.12-11.95s10.81-4.75,18.21-4.75q11.42,0,19,5.48a21.55,21.55,0,0,1,9,14.25l13.07-2.3Q80.44,37.19,69.44,29.55T41.72,21.91Q25,21.91,14,29.63T3,49A21.87,21.87,0,0,0,6.7,61.81,24.72,24.72,0,0,0,16.39,70a80.26,80.26,0,0,0,13.24,5q7.27,2.1,14.49,3.75a112.8,112.8,0,0,1,13.16,3.8A24.8,24.8,0,0,1,67,88.59a13.21,13.21,0,0,1,3.72,9.5c0,5.09-2.55,9.27-7.61,12.54s-11.7,4.88-19.86,4.88q-12.91,0-20.78-5.1a20.84,20.84,0,0,1-9.52-14.49L0,98.24q2,12.67,13.57,20t29.3,7.33q17.54,0,29.3-7.85T83.93,97.8A23.53,23.53,0,0,0,80.2,84.34,25.34,25.34,0,0,0,70.52,75.76Z"/>
          <path class="cls-2" d="M240.86,86.85a25.41,25.41,0,0,1-9.52,20.46q-9.54,7.92-24.93,7.92-15,0-24.67-8a25.37,25.37,0,0,1-9.58-20.38V23.35H159.23v63.5q0,17,13.24,27.88t33.94,10.86q20.7,0,34-10.86t13.31-27.88V23.35H240.86Z"/>
          <rect class="cls-2" x="332.44" y="70.53" width="12.91" height="53.62"/>
          <polygon class="cls-2" points="412.09 121.85 346.34 23.36 335.37 23.36 332.44 23.36 399.67 124.15 425 124.15 425 23.36 412.09 23.36 412.09 121.85"/>
          <polygon class="cls-2" points="532.1 124.15 545.59 124.15 596.73 23.35 583.24 23.35 532.1 124.15"/>
          <polygon class="cls-2" points="508.05 23.88 494.55 23.88 523.93 77.29 537.42 77.29 508.05 23.88"/>
          <polygon class="cls-2" points="627.02 124.15 640.51 124.15 691.65 23.35 678.16 23.35 627.02 124.15"/>
          <polygon class="cls-2" points="708.24 57.15 694.75 57.15 729.5 123.62 743 123.62 708.24 57.15"/>
        </g>
      </g>
    </g>
  </g>
</svg>
